<svg id="Capa_1" enable-background="new 0 0 512 512" height="512" viewBox="0 0 512 512" width="512" xmlns="http://www.w3.org/2000/svg"><g><g><g><circle cx="287.552" cy="212.504" fill="#ffd064" r="71.47"/><path d="m243.455 268.75c-2.235-1.751-4.386-3.659-6.439-5.713-27.909-27.909-27.909-73.161 0-101.07s73.162-27.909 101.07 0c2.054 2.054 3.962 4.204 5.713 6.44-28.048-22.051-68.782-20.149-94.637 5.707s-27.758 66.588-5.707 94.636z" fill="#ffc250"/></g><g><circle cx="209.774" cy="258.406" fill="#ffd064" r="71.47"/><path d="m218.365 329.36c-2.819.343-5.689.514-8.593.514-39.469 0-71.468-31.998-71.468-71.467s31.999-71.468 71.468-71.468c2.904 0 5.774.172 8.593.514-35.425 4.241-62.883 34.389-62.883 70.954s27.457 66.712 62.883 70.953z" fill="#ffc250"/></g><g><g><path d="m193.558 409.198 31.923 12.523 89.36-59.486c9.505-6.328 20.729-8.252 31.2-6.181 9.456 1.875 18.306 7.024 24.684 15.154 15.097 19.239 10.455 47.288-10.037 60.64l-97.506 63.514c-12.313 8.023-27.271 10.921-41.688 8.064l-161.87-38.938c-9.562-1.891-18.65-5.935-26.509-11.863-7.859-5.935-14.483-13.77-19.116-23.259-14.99-30.701-3.201-68.262 26.657-84.874 15.064-8.375 31.929-10.103 47.304-6.214 21.548 5.444 44.332 2.906 63.678-8.015l33.067-18.674c21.941-11.339 48.917-2.751 60.264 19.19 3.398 6.566 5.002 13.582 5.002 20.5 0 16.185-8.817 31.814-24.192 39.764l-72.896 41.065" fill="#ffddce"/></g><g><path d="m245.116 331.067c-10.455-2.874-21.974-1.973-32.371 3.398l-33.067 18.674c-19.346 10.921-42.13 13.459-63.678 8.015-15.375-3.889-32.24-2.161-47.304 6.214-29.858 16.611-41.647 54.173-26.657 84.874 1.433 2.939 3.062 5.714 4.855 8.326-4.88-2.055-9.505-4.724-13.779-7.941-7.86-5.936-14.483-13.77-19.116-23.259-14.99-30.701-3.201-68.262 26.657-84.874 15.064-8.375 31.929-10.103 47.304-6.214 21.548 5.444 44.332 2.906 63.678-8.015l33.067-18.674c21.941-11.339 48.917-2.751 60.264 19.19.048.098.097.188.147.286z" fill="#ffcbbe"/></g><g><path d="m370.725 371.208c-10.602-2.047-21.941-.033-31.511 6.419l-101.084 68.131-85.324-13.746 40.672-22.915 31.929 12.526 89.36-59.486c9.505-6.329 20.729-8.252 31.2-6.181 9.456 1.875 18.306 7.024 24.683 15.154.026.032.051.065.075.098z" fill="#ffcbbe"/></g></g><g><g><path d="m318.443 102.802-31.923-12.523-89.36 59.486c-9.505 6.328-20.729 8.252-31.2 6.181-9.456-1.875-18.306-7.024-24.684-15.154-15.097-19.239-10.455-47.288 10.037-60.64l97.506-63.514c12.313-8.023 27.271-10.921 41.688-8.064l161.87 38.938c9.562 1.891 18.65 5.936 26.509 11.863 7.859 5.936 14.483 13.77 19.116 23.259 14.99 30.701 3.201 68.262-26.657 84.874-15.064 8.375-31.929 10.103-47.304 6.214-21.548-5.444-44.332-2.906-63.678 8.015l-33.067 18.674c-21.941 11.339-48.917 2.751-60.264-19.19-3.398-6.566-5.002-13.582-5.002-20.5 0-16.186 8.817-31.814 24.192-39.764l72.896-41.065" fill="#a55e4d"/></g><g><path d="m266.886 180.933c10.455 2.874 21.974 1.973 32.371-3.398l33.067-18.674c19.346-10.921 42.13-13.459 63.678-8.015 15.375 3.889 32.24 2.161 47.304-6.214 29.858-16.611 41.647-54.173 26.657-84.874-1.433-2.939-3.062-5.714-4.855-8.326 4.88 2.055 9.505 4.724 13.779 7.941 7.859 5.936 14.483 13.77 19.116 23.259 14.99 30.701 3.201 68.262-26.657 84.874-15.064 8.375-31.929 10.103-47.304 6.214-21.548-5.444-44.332-2.906-63.678 8.015l-33.067 18.674c-21.941 11.339-48.917 2.751-60.264-19.19-.049-.098-.098-.188-.147-.286z" fill="#904f40"/></g><g><path d="m141.276 140.792c10.602 2.047 21.941.033 31.511-6.419l101.084-68.131 85.324 13.746-40.672 22.915-31.929-12.526-89.36 59.486c-9.505 6.329-20.729 8.252-31.2 6.181-9.456-1.875-18.306-7.024-24.683-15.154-.026-.032-.05-.065-.075-.098z" fill="#904f40"/></g></g></g><g><path d="m192.239 250.603c-.485-.71-1.96-3.23-.571-5.818 2.923-5.444 7.737-6.036 8.276-6.086 4.124-.379 7.16-4.03 6.781-8.155-.379-4.124-4.029-7.161-8.155-6.781-3.048.28-6.596 1.332-10.022 3.346l-1.049-1.049c-2.929-2.929-7.677-2.929-10.606 0s-2.929 7.677 0 10.606l1.383 1.383c-3.376 6.605-2.791 14.616 1.576 21.011 4.115 6.026 10.717 9.276 17.231 8.491 6.332-.765 13.391-3.825 20.077-7.019 4.915-2.348 7.796.314 9.077 2.111 2.17 3.047 2.794 8.061-.963 11.869-4.105 4.16-5.353 5.068-10.449 6.133-4.054.848-6.654 4.821-5.806 8.875.739 3.537 3.858 5.966 7.333 5.966.509 0 1.025-.052 1.542-.16 5.553-1.161 9.09-2.71 12.441-5.219l1.181 1.181c1.464 1.464 3.384 2.197 5.303 2.197s3.839-.732 5.303-2.197c2.929-2.929 2.929-7.677 0-10.606l-1.743-1.743c4.361-8.554 2.772-18.403-1.925-24.998-6.422-9.018-17.58-11.808-27.759-6.945-5.266 2.515-11.216 5.155-15.411 5.662-.877.108-2.158-.756-3.045-2.055z"/><path d="m504.727 79.352c-5.04-10.33-12.219-19.062-21.344-25.958-8.641-6.516-18.805-11.078-29.405-13.198l-161.715-38.903c-.1-.024-.2-.046-.3-.066-16.441-3.247-33.217 0-47.234 9.143l-40.488 26.368c-3.47 2.26-4.452 6.906-2.191 10.377 2.261 3.47 6.906 4.451 10.377 2.191l40.492-26.371c10.683-6.969 23.458-9.461 35.991-7.023l161.706 38.901c.1.024.199.046.3.065 8.447 1.67 16.552 5.298 23.432 10.486 7.218 5.455 12.904 12.374 16.901 20.566 6.405 13.117 7.496 28.098 3.073 42.184-4.424 14.087-13.883 25.752-26.636 32.845-12.814 7.122-27.665 9.074-41.818 5.494-23.927-6.041-48.503-2.929-69.2 8.761l-32.931 18.597c-18.207 9.333-40.634 2.157-50.045-16.033-2.761-5.336-4.161-11.073-4.161-17.052 0-13.991 7.715-26.673 20.135-33.097.079-.041.158-.083.235-.127l72.896-41.067c3.609-2.033 4.886-6.606 2.853-10.215-2.033-3.608-6.608-4.886-10.215-2.853l-37.567 21.163-28.611-11.222c-2.28-.894-4.854-.619-6.894.739l-89.355 59.476c-7.57 5.039-16.659 6.842-25.58 5.078-8.02-1.594-15.207-6.008-20.241-12.434-5.988-7.63-8.415-17.104-6.831-26.675 1.583-9.569 6.93-17.754 15.053-23.047l32.078-20.889c3.47-2.261 4.452-6.906 2.192-10.377-2.261-3.471-6.907-4.452-10.377-2.192l-32.08 20.89c-11.523 7.507-19.42 19.596-21.665 33.166-2.245 13.572 1.337 27.562 9.826 38.379 7.243 9.243 17.584 15.596 29.128 17.891 3.215.636 6.442.95 9.648.95 9.602 0 18.995-2.819 27.16-8.254l86.1-57.31 13.588 5.33-18.358 10.342c-10.474 5.453-18.545 14.086-23.301 24.377-10.385 3.942-19.672 9.957-27.641 17.925-6.739 6.739-12.079 14.471-15.971 23.02-1.971-.148-3.956-.248-5.964-.248-43.542 0-78.965 35.424-78.965 78.965 0 23.217 9.99 44.76 27.202 59.642l-10.053 5.677c-17.334 9.786-37.986 12.368-58.148 7.274-17.871-4.521-36.617-2.059-52.786 6.93-16.124 8.971-28.075 23.694-33.653 41.458-5.577 17.762-4.191 36.675 3.906 53.255 5.051 10.344 12.229 19.075 21.339 25.954 8.64 6.516 18.808 11.078 29.413 13.201l161.716 38.901c.098.023.197.045.296.065 4.161.825 8.344 1.232 12.5 1.232 12.247 0 24.255-3.539 34.737-10.368l97.501-63.511c11.525-7.51 19.422-19.6 21.668-33.172 2.245-13.57-1.336-27.558-9.825-38.377-7.252-9.245-17.595-15.595-29.127-17.882-12.852-2.543-25.925.049-36.81 7.295l-86.099 57.316-13.587-5.33 18.352-10.338c17.35-9.028 28.122-26.779 28.122-46.359 0-8.281-2.02-16.561-5.84-23.944-.257-.498-.534-.979-.805-1.465 13.572-8.287 24.205-20.452 30.713-34.63 2.028.156 4.056.235 6.079.235 15.179 0 30.078-4.36 42.906-12.693 3.473-2.257 4.46-6.901 2.203-10.375-2.257-3.473-6.902-4.459-10.375-2.203-10.661 6.926-23.095 10.457-35.735 10.261 1.386-5.85 2.123-11.899 2.123-18.052 0-36.146-24.421-66.674-57.622-76.011 2.946-5.531 6.68-10.602 11.198-15.12 3.754-3.754 7.876-6.959 12.312-9.623-.059 1.018-.096 2.041-.096 3.071 0 8.402 1.964 16.458 5.838 23.945 9.275 17.929 27.564 28.228 46.483 28.228 8.065 0 16.245-1.872 23.889-5.823.082-.042.164-.086.244-.132l18.507-10.451c4.453 17.247 1.562 35.713-8.253 50.81-2.258 3.472-1.273 8.118 2.2 10.375 1.262.821 2.68 1.213 4.081 1.213 2.453 0 4.857-1.203 6.295-3.413 12.854-19.771 16.098-44.212 9.108-66.57l1.122-.634c17.326-9.787 37.977-12.371 58.149-7.279 17.868 4.519 36.612 2.06 52.782-6.927 16.125-8.97 28.077-23.694 33.657-41.461 5.574-17.76 4.187-36.675-3.907-53.253zm-282.391 305.022c-.08.041-.159.083-.237.127l-72.892 41.063c-3.609 2.033-4.886 6.607-2.853 10.215 2.034 3.609 6.607 4.886 10.215 2.853l37.567-21.163 28.609 11.223c2.281.895 4.855.619 6.895-.739l89.355-59.483c7.563-5.034 16.65-6.834 25.584-5.067 8.012 1.589 15.2 6.002 20.241 12.426 5.986 7.629 8.412 17.101 6.828 26.67-1.584 9.571-6.932 17.758-15.058 23.053l-97.501 63.511c-10.699 6.97-23.474 9.463-35.989 7.019l-161.709-38.897c-.099-.024-.199-.046-.299-.065-8.454-1.672-16.562-5.3-23.443-10.49-7.205-5.442-12.89-12.361-16.896-20.564-6.404-13.116-7.496-28.096-3.074-42.18 4.423-14.085 13.882-25.749 26.634-32.843 12.814-7.125 27.666-9.077 41.819-5.497 23.918 6.043 48.494 2.934 69.199-8.755l32.939-18.602c18.208-9.327 40.63-2.155 50.037 16.035 2.763 5.338 4.163 11.075 4.163 17.052.001 13.994-7.714 26.677-20.134 33.098zm51.404-125.964c0 22.921-12.445 44.136-32.11 55.466-15.672-15.203-39.927-19.512-60.364-8.951-.083.043-.164.087-.245.132l-8.929 5.043c-16.536-12.036-26.285-31.048-26.285-51.689 0-35.271 28.695-63.966 63.966-63.966s63.967 28.694 63.967 63.965z"/></g></g></svg>